<svg width="571" height="220" viewBox="0 0 571 220" fill="none" xmlns="http://www.w3.org/2000/svg">
<path d="M10 177.481V107.469H19.1819L41.1783 134.173L63.0737 107.469H72.4574V177.481H62.9728V123.371L43.8017 146.176H38.5549L19.2828 123.371V177.481H10Z" fill="#1A1A1A"/>
<path d="M195.886 177.481V146.009L172.275 107.469H182.971L200.628 137.341L218.084 107.469H228.88L205.27 146.009V177.481H195.886Z" fill="#1A1A1A"/>
<path d="M253.445 177.481V107.469H299.657V116.07H262.627V137.374H296.529V146.076H262.627V177.481H253.445Z" fill="#1A1A1A"/>
<path d="M324.36 177.481V107.469H333.542V177.481H324.36Z" fill="#1A1A1A"/>
<path d="M357.9 177.481V107.469H404.112V116.07H367.082V137.374H400.985V146.076H367.082V177.481H357.9Z" fill="#1A1A1A"/>
<path d="M450.727 177.481V116.07H428.529V107.469H482.107V116.07H460.01V177.481H450.727Z" fill="#1A1A1A"/>
<path d="M507.119 177.481V107.469H516.301V137.474H551.717V107.469H561V177.481H551.717V145.976H516.301V177.481H507.119Z" fill="#1A1A1A"/>
<path d="M97.0193 177.481L124.565 107.469H132.738L160.284 177.481H149.891L128.702 121.905L107.21 177.481H97.0193Z" fill="#1A1A1A"/>
<path d="M94.4936 200.819H164.512V210H94.4936V200.819Z" fill="#1A1A1A"/>
<path d="M185.894 80.0127V10H232.106V18.6016H195.076V39.9054H228.978V48.607H195.076V80.0127H185.894Z" fill="#1A1A1A"/>
<path d="M279.094 80.0127V18.6016H256.896V10H310.474V18.6016H288.377V80.0127H279.094Z" fill="#1A1A1A"/>
<path d="M335.723 80.0127V10L381.431 10V18.6016L344.905 18.6016V39.9054L378.202 39.9054V48.607L344.905 48.607V71.4111L382.642 71.4111V80.0127L335.723 80.0127Z" fill="#1A1A1A"/>
<path d="M406.729 80.0127V10H438.311C444.97 10 450.116 11.5336 453.749 14.6008C457.448 17.6681 459.298 22.5356 459.298 29.2035C459.298 35.1379 457.852 39.672 454.96 42.8059C452.067 45.9398 447.863 47.7735 442.347 48.3069L458.794 80.0127H447.997L432.66 48.707H415.911V80.0127H406.729ZM415.911 40.0054H437.201C441.237 40.0054 444.298 39.172 446.383 37.505C448.535 35.7713 449.612 33.0042 449.612 29.2035C449.612 25.4695 448.535 22.769 446.383 21.102C444.298 19.435 441.237 18.6016 437.201 18.6016H415.911V40.0054Z" fill="#1A1A1A"/>
<path d="M97.2394 80.0127L124.785 10H132.958L160.504 80.0127H150.111L128.922 24.436L107.43 80.0127H97.2394Z" fill="#1A1A1A"/>
</svg>
