<svg width="724" height="346" viewBox="0 0 724 346" fill="none" xmlns="http://www.w3.org/2000/svg">
<path d="M333.803 10C335.812 10 337.441 11.6217 337.441 13.6222V332.378C337.441 334.378 335.812 336 333.803 336H201.122C199.112 336 197.484 334.378 197.484 332.378V297.495C197.484 297.088 197.553 296.684 197.688 296.299L297.401 12.4265C297.911 10.9732 299.289 10 300.835 10H333.803Z" fill="#10BE81"/>
<path d="M149.958 332.378V13.6222C149.958 11.6217 148.329 10 146.319 10H113.351C111.805 10 110.428 10.9732 109.917 12.4265L10.2039 296.299C10.0689 296.684 10 297.088 10 297.495V332.378C10 334.378 11.6289 336 13.6382 336H146.319C148.329 336 149.958 334.378 149.958 332.378Z" fill="#10BE81"/>
<path d="M390.197 336C388.188 336 386.559 334.378 386.559 332.378V13.6222C386.559 11.6217 388.188 10 390.197 10H522.878C524.888 10 526.516 11.6217 526.516 13.6222V48.5049C526.516 48.912 526.447 49.3163 526.312 49.7006L426.599 333.574C426.089 335.027 424.711 336 423.165 336H390.197Z" fill="#10BE81"/>
<path d="M574.042 13.6222V332.378C574.042 334.378 575.671 336 577.681 336H610.649C612.195 336 613.572 335.027 614.083 333.574L713.796 49.7006C713.931 49.3163 714 48.912 714 48.5049V13.6222C714 11.6217 712.371 10 710.362 10H577.681C575.671 10 574.042 11.6217 574.042 13.6222Z" fill="#10BE81"/>
</svg>
