<svg width="822" height="169" viewBox="0 0 822 169" fill="none" xmlns="http://www.w3.org/2000/svg">
<path fill-rule="evenodd" clip-rule="evenodd" d="M314.478 32.5953C323.258 32.5953 331.47 34.31 339.112 37.7396C346.754 41.0059 353.42 45.4967 359.111 51.2126C364.802 56.9286 369.274 63.6246 372.526 71.3004C375.94 78.9761 377.648 87.1417 377.648 95.7973C377.648 104.453 375.94 112.619 372.526 120.295C369.274 127.97 364.802 134.666 359.111 140.382C353.42 146.098 346.754 150.671 339.112 154.1C331.47 157.367 323.258 159 314.478 159C305.698 159 297.487 157.367 289.845 154.1C282.202 150.671 275.535 146.098 269.845 140.382C264.154 134.666 259.601 127.97 256.187 120.295C252.935 112.619 251.309 104.453 251.309 95.7973C251.309 87.1417 252.935 78.9761 256.187 71.3004C259.601 63.6247 264.154 56.9285 269.845 51.2126C275.535 45.4966 282.202 41.0059 289.845 37.7396C297.487 34.3101 305.698 32.5953 314.478 32.5953ZM314.681 61.2434C295.792 61.2434 280.478 76.5972 280.478 95.537C280.478 113.389 294.084 128.053 311.466 129.678C312.454 129.791 313.458 129.848 314.478 129.848C315.016 129.848 315.548 129.831 316.075 129.799C334.319 129.066 348.884 114.009 348.884 95.537C348.884 76.5972 333.571 61.2434 314.681 61.2434Z" fill="#FFFFFF"/>
<path fill-rule="evenodd" clip-rule="evenodd" d="M679.639 32.5953C688.419 32.5953 696.63 34.3101 704.272 37.7396C711.914 41.0059 718.58 45.4967 724.271 51.2126C729.962 56.9286 734.434 63.6246 737.686 71.3004C741.101 78.976 742.808 87.1417 742.808 95.7973C742.808 104.453 741.101 112.619 737.686 120.295C734.434 127.971 729.962 134.666 724.271 140.382C718.58 146.098 711.914 150.671 704.272 154.1C696.63 157.367 688.419 159 679.639 159C670.858 159 662.647 157.367 655.005 154.1C647.363 150.671 640.696 146.098 635.005 140.382C629.314 134.666 624.761 127.971 621.347 120.295C618.095 112.619 616.469 104.453 616.469 95.7973C616.469 87.1417 618.095 78.9761 621.347 71.3004C624.761 63.6246 629.314 56.9286 635.005 51.2126C640.696 45.4967 647.363 41.0059 655.005 37.7396C662.647 34.31 670.858 32.5953 679.639 32.5953ZM679.513 61.2434C660.623 61.2434 645.31 76.5972 645.31 95.537C645.31 113.948 659.78 128.969 677.94 129.793C678.501 129.828 679.068 129.848 679.639 129.848C680.466 129.848 681.279 129.809 682.08 129.734C699.77 128.418 713.716 113.611 713.716 95.537C713.716 76.5972 698.403 61.2434 679.513 61.2434Z" fill="#FFFFFF"/>
<path d="M204.261 119.808C204.603 121.491 207.002 121.49 207.343 119.807L224.397 35.7017C224.546 34.9671 225.19 34.4392 225.938 34.4392H256.411C257.446 34.4392 258.198 35.4239 257.929 36.4258L225.753 156.256C225.568 156.945 224.945 157.423 224.234 157.423H188.172C187.435 157.423 186.798 156.911 186.637 156.19L172.191 91.3042C171.826 89.6661 169.501 89.6575 169.124 91.2928L154.17 156.201C154.005 156.917 153.37 157.423 152.638 157.423H130.655C129.66 157.423 128.915 156.508 129.115 155.53L153.63 35.699C153.781 34.9656 154.424 34.4392 155.171 34.4392H185.627C186.375 34.4392 187.019 34.9667 187.168 35.7011L204.261 119.808Z" fill="#FFFFFF"/>
<path d="M429.871 115.158C429.871 118.914 431.293 122.091 433.895 124.704C436.659 127.317 439.498 129.042 443.237 129.042H465.253C466.121 129.042 466.825 129.748 466.825 130.619V155.847C466.825 156.717 466.121 157.423 465.253 157.423H443.237C436.896 157.423 431.293 155.897 425.602 153.611C420.074 151.161 415.195 147.895 410.968 143.812C406.903 139.566 403.651 134.666 401.212 129.113C398.773 123.561 397.633 117.673 397.633 111.304V75.4339C397.633 74.5631 396.929 73.8571 396.061 73.8571H381.908C381.039 73.8571 380.335 73.1512 380.335 72.2804V48.6296C380.335 47.7588 381.039 47.0529 381.908 47.0529H396.061C396.929 47.0529 397.633 46.347 397.633 45.4762V11.5767C397.633 10.7059 398.337 10 399.206 10H428.298C429.167 10 429.871 10.7059 429.871 11.5767V115.158Z" fill="#FFFFFF"/>
<path d="M508.543 155.847C508.543 156.717 507.839 157.423 506.971 157.423H477.833C476.965 157.423 476.261 156.717 476.261 155.847V48.6296C476.261 47.7588 476.965 47.0529 477.833 47.0529H506.971C507.839 47.0529 508.543 47.7588 508.543 48.6296V155.847Z" fill="#FFFFFF"/>
<path d="M550.171 80.421C550.171 81.8081 551.828 82.5193 552.829 81.5616L601.609 34.8753C601.901 34.5954 602.29 34.4392 602.695 34.4392H638.344C639.748 34.4392 640.448 36.1449 639.451 37.1362C625.212 51.2871 612.065 64.3726 600.289 76.1999L550.509 126.2C550.213 126.497 550.048 126.9 550.05 127.32L550.164 155.84C550.168 156.713 549.463 157.423 548.592 157.423H519.506C518.637 157.423 517.933 156.717 517.933 155.847V11.5767C517.933 10.7059 518.637 10 519.506 10H548.598C549.467 10 550.171 10.7059 550.171 11.5767V80.421Z" fill="#FFFFFF"/>
<path d="M583.01 101.188C583.257 99.9528 584.775 99.4945 585.649 100.4C592.159 107.139 597.384 113.455 601.51 117.6C606.225 122.172 610.046 125.929 612.973 128.868C615.899 131.808 618.176 134.176 619.802 135.973C621.59 137.606 623.378 139.321 625.167 141.117C626.955 142.75 628.989 144.792 631.265 147.242C633.144 149.129 635.621 151.727 638.592 154.688C639.595 155.688 638.894 157.423 637.479 157.423H601.907C601.504 157.423 601.115 157.268 600.823 156.988L577.138 134.372C576.748 133.999 576.575 133.451 576.681 132.921L583.01 101.188Z" fill="#FFFFFF"/>
<path d="M133.289 120.339C133.387 120.852 133.225 121.38 132.856 121.749L114.184 140.471C113.318 141.339 111.84 140.927 111.545 139.736L85.9666 36.3957C85.7205 35.4012 86.4709 34.4392 87.4929 34.4392H115.633C116.387 34.4392 117.036 34.9768 117.177 35.7202L133.289 120.339Z" fill="#FFFFFF"/>
<path d="M466.825 72.2804C466.825 73.1512 466.121 73.8571 465.253 73.8571H437.598C436.197 73.8571 435.496 72.1588 436.486 71.1655L460.075 47.5147C460.37 47.219 460.77 47.0529 461.187 47.0529H465.253C466.121 47.0529 466.825 47.7588 466.825 48.6296V72.2804Z" fill="#FFFFFF"/>
<path d="M484.584 33.9784C484.289 34.2734 483.89 34.4392 483.473 34.4392H477.833C476.965 34.4392 476.261 33.7332 476.261 32.8624V11.5767C476.261 10.7059 476.965 10 477.833 10H504.742C506.144 10 506.845 11.6998 505.853 12.6927L484.584 33.9784Z" fill="#FFFFFF"/>
<path d="M73.6882 10V73.8571H46.4662V66.1943L66.0661 10H73.6882ZM37.222 10V73.8571H10V66.1943L29.5999 10H37.222Z" fill="#10BE81"/>
<path d="M748.312 73.8571V10H775.534V17.6629L755.934 73.8571H748.312ZM784.778 73.8571V10H812V17.6629L792.4 73.8571H784.778Z" fill="#10BE81"/>
</svg>
